G04 Layer_Physical_Order=2*
G04 Layer_Color=16711680*
%FSLAX23Y23*%
%MOIN*%
G70*
G01*
G75*
%ADD10C,0.010*%
%ADD11C,0.062*%
%ADD12R,0.062X0.062*%
%ADD13R,0.060X0.060*%
%ADD14C,0.039*%
G36*
X1220Y0D02*
X0D01*
Y1000D01*
X1220D01*
Y0D01*
D02*
G37*
%LPC*%
G36*
X1050Y291D02*
X1039Y290D01*
X1029Y286D01*
X1021Y279D01*
X1014Y271D01*
X1012Y265D01*
X988D01*
X986Y271D01*
X979Y279D01*
X971Y286D01*
X961Y290D01*
X950Y291D01*
X939Y290D01*
X929Y286D01*
X921Y279D01*
X914Y271D01*
X910Y261D01*
X909Y250D01*
X910Y239D01*
X914Y229D01*
X921Y221D01*
X929Y214D01*
X939Y210D01*
X950Y209D01*
X961Y210D01*
X971Y214D01*
X979Y221D01*
X986Y229D01*
X988Y235D01*
X1012D01*
X1014Y229D01*
X1021Y221D01*
X1029Y214D01*
X1039Y210D01*
X1050Y209D01*
X1061Y210D01*
X1071Y214D01*
X1079Y221D01*
X1086Y229D01*
X1090Y239D01*
X1091Y250D01*
X1090Y261D01*
X1086Y271D01*
X1079Y279D01*
X1071Y286D01*
X1061Y290D01*
X1050Y291D01*
D02*
G37*
G36*
Y191D02*
X1039Y190D01*
X1029Y186D01*
X1021Y179D01*
X1014Y171D01*
X1012Y165D01*
X988D01*
X986Y171D01*
X979Y179D01*
X971Y186D01*
X961Y190D01*
X950Y191D01*
X939Y190D01*
X929Y186D01*
X921Y179D01*
X914Y171D01*
X910Y161D01*
X909Y150D01*
X910Y139D01*
X914Y129D01*
X921Y121D01*
X929Y114D01*
X939Y110D01*
X950Y109D01*
X961Y110D01*
X971Y114D01*
X979Y121D01*
X986Y129D01*
X988Y135D01*
X1012D01*
X1014Y129D01*
X1021Y121D01*
X1029Y114D01*
X1039Y110D01*
X1050Y109D01*
X1061Y110D01*
X1071Y114D01*
X1079Y121D01*
X1086Y129D01*
X1090Y139D01*
X1091Y150D01*
X1090Y161D01*
X1086Y171D01*
X1079Y179D01*
X1071Y186D01*
X1061Y190D01*
X1050Y191D01*
D02*
G37*
G36*
X291Y841D02*
X209D01*
Y759D01*
X235D01*
Y738D01*
X229Y736D01*
X221Y729D01*
X214Y721D01*
X210Y711D01*
X209Y700D01*
X210Y689D01*
X214Y679D01*
X221Y671D01*
X229Y664D01*
X235Y662D01*
Y541D01*
X209D01*
Y459D01*
X235D01*
Y438D01*
X229Y436D01*
X221Y429D01*
X214Y421D01*
X210Y411D01*
X209Y400D01*
X210Y389D01*
X214Y379D01*
X221Y371D01*
X229Y364D01*
X235Y362D01*
Y338D01*
X229Y336D01*
X221Y329D01*
X214Y321D01*
X210Y311D01*
X209Y300D01*
X210Y289D01*
X214Y279D01*
X221Y271D01*
X229Y264D01*
X235Y262D01*
Y238D01*
X229Y236D01*
X221Y229D01*
X214Y221D01*
X210Y211D01*
X209Y200D01*
X210Y189D01*
X214Y179D01*
X221Y171D01*
X229Y164D01*
X239Y160D01*
X250Y159D01*
X261Y160D01*
X271Y164D01*
X279Y171D01*
X286Y179D01*
X290Y189D01*
X291Y200D01*
X290Y211D01*
X286Y221D01*
X279Y229D01*
X271Y236D01*
X265Y238D01*
Y262D01*
X271Y264D01*
X279Y271D01*
X286Y279D01*
X290Y289D01*
X291Y300D01*
X290Y311D01*
X286Y321D01*
X279Y329D01*
X271Y336D01*
X265Y338D01*
Y362D01*
X271Y364D01*
X279Y371D01*
X286Y379D01*
X290Y389D01*
X291Y400D01*
X290Y411D01*
X286Y421D01*
X279Y429D01*
X271Y436D01*
X265Y438D01*
Y459D01*
X291D01*
Y541D01*
X265D01*
Y662D01*
X271Y664D01*
X279Y671D01*
X286Y679D01*
X290Y689D01*
X291Y700D01*
X290Y711D01*
X286Y721D01*
X279Y729D01*
X271Y736D01*
X265Y738D01*
Y759D01*
X291D01*
Y841D01*
D02*
G37*
G36*
X750Y591D02*
X739Y590D01*
X729Y586D01*
X721Y579D01*
X714Y571D01*
X710Y561D01*
X709Y550D01*
X710Y539D01*
X712Y534D01*
X694Y515D01*
X680D01*
X678Y520D01*
X679Y521D01*
X686Y529D01*
X690Y539D01*
X691Y550D01*
X690Y561D01*
X686Y571D01*
X679Y579D01*
X671Y586D01*
X661Y590D01*
X650Y591D01*
X639Y590D01*
X629Y586D01*
X621Y579D01*
X614Y571D01*
X610Y561D01*
X609Y550D01*
X610Y539D01*
X614Y529D01*
X621Y521D01*
X622Y520D01*
X620Y515D01*
X588D01*
X586Y521D01*
X579Y529D01*
X571Y536D01*
X561Y540D01*
X550Y541D01*
X539Y540D01*
X529Y536D01*
X521Y529D01*
X514Y521D01*
X510Y511D01*
X509Y500D01*
X510Y489D01*
X514Y479D01*
X521Y471D01*
X529Y464D01*
X539Y460D01*
X550Y459D01*
X561Y460D01*
X571Y464D01*
X579Y471D01*
X586Y479D01*
X588Y485D01*
X620D01*
X622Y480D01*
X621Y479D01*
X614Y471D01*
X610Y461D01*
X609Y450D01*
X610Y439D01*
X614Y429D01*
X621Y421D01*
X622Y420D01*
X620Y415D01*
X588D01*
X586Y421D01*
X579Y429D01*
X571Y436D01*
X561Y440D01*
X550Y441D01*
X539Y440D01*
X529Y436D01*
X521Y429D01*
X514Y421D01*
X510Y411D01*
X509Y400D01*
X510Y389D01*
X514Y379D01*
X521Y371D01*
X529Y364D01*
X539Y360D01*
X550Y359D01*
X561Y360D01*
X571Y364D01*
X579Y371D01*
X586Y379D01*
X588Y385D01*
X620D01*
X622Y380D01*
X621Y379D01*
X614Y371D01*
X610Y361D01*
X609Y350D01*
X610Y339D01*
X614Y329D01*
X621Y321D01*
X622Y320D01*
X620Y315D01*
X588D01*
X586Y321D01*
X579Y329D01*
X571Y336D01*
X561Y340D01*
X550Y341D01*
X539Y340D01*
X529Y336D01*
X521Y329D01*
X514Y321D01*
X510Y311D01*
X509Y300D01*
X510Y289D01*
X514Y279D01*
X521Y271D01*
X529Y264D01*
X539Y260D01*
X550Y259D01*
X561Y260D01*
X571Y264D01*
X579Y271D01*
X586Y279D01*
X588Y285D01*
X620D01*
X622Y280D01*
X621Y279D01*
X614Y271D01*
X610Y261D01*
X609Y250D01*
X610Y239D01*
X614Y229D01*
X621Y221D01*
X622Y220D01*
X620Y215D01*
X588D01*
X586Y221D01*
X579Y229D01*
X571Y236D01*
X561Y240D01*
X550Y241D01*
X539Y240D01*
X529Y236D01*
X521Y229D01*
X514Y221D01*
X510Y211D01*
X509Y200D01*
X510Y189D01*
X514Y179D01*
X521Y171D01*
X529Y164D01*
X539Y160D01*
X550Y159D01*
X561Y160D01*
X571Y164D01*
X579Y171D01*
X586Y179D01*
X588Y185D01*
X620D01*
X622Y180D01*
X621Y179D01*
X614Y171D01*
X610Y161D01*
X609Y155D01*
X691D01*
X690Y161D01*
X686Y171D01*
X679Y179D01*
X678Y180D01*
X680Y185D01*
X700D01*
X706Y186D01*
X711Y189D01*
X711Y189D01*
X711Y189D01*
X734Y212D01*
X739Y210D01*
X750Y209D01*
X761Y210D01*
X771Y214D01*
X779Y221D01*
X786Y229D01*
X790Y239D01*
X791Y250D01*
X790Y261D01*
X786Y271D01*
X779Y279D01*
X771Y286D01*
X761Y290D01*
X750Y291D01*
X739Y290D01*
X729Y286D01*
X721Y279D01*
X714Y271D01*
X710Y261D01*
X709Y250D01*
X710Y239D01*
X712Y234D01*
X694Y215D01*
X680D01*
X678Y220D01*
X679Y221D01*
X686Y229D01*
X690Y239D01*
X691Y250D01*
X690Y261D01*
X686Y271D01*
X679Y279D01*
X678Y280D01*
X680Y285D01*
X700D01*
X706Y286D01*
X711Y289D01*
X711Y289D01*
X711Y289D01*
X734Y312D01*
X739Y310D01*
X750Y309D01*
X761Y310D01*
X771Y314D01*
X779Y321D01*
X786Y329D01*
X790Y339D01*
X791Y350D01*
X790Y361D01*
X786Y371D01*
X779Y379D01*
X771Y386D01*
X761Y390D01*
X750Y391D01*
X739Y390D01*
X729Y386D01*
X721Y379D01*
X714Y371D01*
X710Y361D01*
X709Y350D01*
X710Y339D01*
X712Y334D01*
X694Y315D01*
X680D01*
X678Y320D01*
X679Y321D01*
X686Y329D01*
X690Y339D01*
X691Y350D01*
X690Y361D01*
X686Y371D01*
X679Y379D01*
X678Y380D01*
X680Y385D01*
X700D01*
X706Y386D01*
X711Y389D01*
X711Y389D01*
X711Y389D01*
X734Y412D01*
X739Y410D01*
X750Y409D01*
X761Y410D01*
X771Y414D01*
X779Y421D01*
X786Y429D01*
X790Y439D01*
X791Y450D01*
X790Y461D01*
X786Y471D01*
X779Y479D01*
X771Y486D01*
X761Y490D01*
X750Y491D01*
X739Y490D01*
X729Y486D01*
X721Y479D01*
X714Y471D01*
X710Y461D01*
X709Y450D01*
X710Y439D01*
X712Y434D01*
X694Y415D01*
X680D01*
X678Y420D01*
X679Y421D01*
X686Y429D01*
X690Y439D01*
X691Y450D01*
X690Y461D01*
X686Y471D01*
X679Y479D01*
X678Y480D01*
X680Y485D01*
X700D01*
X706Y486D01*
X711Y489D01*
X711Y489D01*
X711Y489D01*
X734Y512D01*
X739Y510D01*
X750Y509D01*
X761Y510D01*
X771Y514D01*
X779Y521D01*
X786Y529D01*
X790Y539D01*
X791Y550D01*
X790Y561D01*
X786Y571D01*
X779Y579D01*
X771Y586D01*
X761Y590D01*
X750Y591D01*
D02*
G37*
G36*
X1050Y491D02*
X1039Y490D01*
X1029Y486D01*
X1021Y479D01*
X1014Y471D01*
X1012Y465D01*
X988D01*
X986Y471D01*
X979Y479D01*
X971Y486D01*
X961Y490D01*
X950Y491D01*
X939Y490D01*
X929Y486D01*
X921Y479D01*
X914Y471D01*
X910Y461D01*
X909Y450D01*
X910Y439D01*
X914Y429D01*
X921Y421D01*
X929Y414D01*
X939Y410D01*
X950Y409D01*
X961Y410D01*
X971Y414D01*
X979Y421D01*
X986Y429D01*
X988Y435D01*
X1012D01*
X1014Y429D01*
X1021Y421D01*
X1029Y414D01*
X1039Y410D01*
X1050Y409D01*
X1061Y410D01*
X1071Y414D01*
X1079Y421D01*
X1086Y429D01*
X1090Y439D01*
X1091Y450D01*
X1090Y461D01*
X1086Y471D01*
X1079Y479D01*
X1071Y486D01*
X1061Y490D01*
X1050Y491D01*
D02*
G37*
G36*
Y391D02*
X1039Y390D01*
X1029Y386D01*
X1021Y379D01*
X1014Y371D01*
X1012Y365D01*
X988D01*
X986Y371D01*
X979Y379D01*
X971Y386D01*
X961Y390D01*
X950Y391D01*
X939Y390D01*
X929Y386D01*
X921Y379D01*
X914Y371D01*
X910Y361D01*
X909Y350D01*
X910Y339D01*
X914Y329D01*
X921Y321D01*
X929Y314D01*
X939Y310D01*
X950Y309D01*
X961Y310D01*
X971Y314D01*
X979Y321D01*
X986Y329D01*
X988Y335D01*
X1012D01*
X1014Y329D01*
X1021Y321D01*
X1029Y314D01*
X1039Y310D01*
X1050Y309D01*
X1061Y310D01*
X1071Y314D01*
X1079Y321D01*
X1086Y329D01*
X1090Y339D01*
X1091Y350D01*
X1090Y361D01*
X1086Y371D01*
X1079Y379D01*
X1071Y386D01*
X1061Y390D01*
X1050Y391D01*
D02*
G37*
G36*
X745Y145D02*
X709D01*
X710Y139D01*
X714Y129D01*
X721Y121D01*
X729Y114D01*
X739Y110D01*
X745Y109D01*
Y145D01*
D02*
G37*
G36*
X691D02*
X655D01*
Y109D01*
X661Y110D01*
X671Y114D01*
X679Y121D01*
X686Y129D01*
X690Y139D01*
X691Y145D01*
D02*
G37*
G36*
X645D02*
X609D01*
X610Y139D01*
X614Y129D01*
X621Y121D01*
X629Y114D01*
X639Y110D01*
X645Y109D01*
Y145D01*
D02*
G37*
G36*
X755Y191D02*
Y155D01*
X791D01*
X790Y161D01*
X786Y171D01*
X779Y179D01*
X771Y186D01*
X761Y190D01*
X755Y191D01*
D02*
G37*
G36*
X745D02*
X739Y190D01*
X729Y186D01*
X721Y179D01*
X714Y171D01*
X710Y161D01*
X709Y155D01*
X745D01*
Y191D01*
D02*
G37*
G36*
X791Y145D02*
X755D01*
Y109D01*
X761Y110D01*
X771Y114D01*
X779Y121D01*
X786Y129D01*
X790Y139D01*
X791Y145D01*
D02*
G37*
G36*
X750Y791D02*
X739Y790D01*
X729Y786D01*
X721Y779D01*
X714Y771D01*
X712Y765D01*
X688D01*
X686Y771D01*
X679Y779D01*
X671Y786D01*
X661Y790D01*
X650Y791D01*
X639Y790D01*
X629Y786D01*
X621Y779D01*
X614Y771D01*
X610Y761D01*
X609Y750D01*
X610Y739D01*
X614Y729D01*
X621Y721D01*
X629Y714D01*
X639Y710D01*
X650Y709D01*
X661Y710D01*
X671Y714D01*
X679Y721D01*
X686Y729D01*
X688Y735D01*
X712D01*
X714Y729D01*
X721Y721D01*
X729Y714D01*
X739Y710D01*
X750Y709D01*
X761Y710D01*
X771Y714D01*
X779Y721D01*
X786Y729D01*
X790Y739D01*
X791Y750D01*
X790Y761D01*
X786Y771D01*
X779Y779D01*
X771Y786D01*
X761Y790D01*
X750Y791D01*
D02*
G37*
G36*
X550Y841D02*
X539Y840D01*
X529Y836D01*
X521Y829D01*
X514Y821D01*
X510Y811D01*
X509Y800D01*
X510Y789D01*
X514Y779D01*
X521Y771D01*
X529Y764D01*
X539Y760D01*
X550Y759D01*
X561Y760D01*
X571Y764D01*
X579Y771D01*
X586Y779D01*
X590Y789D01*
X591Y800D01*
X590Y811D01*
X586Y821D01*
X579Y829D01*
X571Y836D01*
X561Y840D01*
X550Y841D01*
D02*
G37*
G36*
X1190Y755D02*
X1155D01*
Y720D01*
X1190D01*
Y755D01*
D02*
G37*
G36*
X1050Y891D02*
X1039Y890D01*
X1029Y886D01*
X1022Y880D01*
X978D01*
X971Y886D01*
X961Y890D01*
X950Y891D01*
X939Y890D01*
X929Y886D01*
X921Y879D01*
X914Y871D01*
X910Y861D01*
X909Y850D01*
X910Y839D01*
X914Y829D01*
X921Y821D01*
X929Y814D01*
X939Y810D01*
X950Y809D01*
X961Y810D01*
X971Y814D01*
X978Y820D01*
X1022D01*
X1029Y814D01*
X1039Y810D01*
X1050Y809D01*
X1061Y810D01*
X1071Y814D01*
X1078Y820D01*
X1110D01*
Y810D01*
X1190D01*
Y890D01*
X1110D01*
Y880D01*
X1078D01*
X1071Y886D01*
X1061Y890D01*
X1050Y891D01*
D02*
G37*
G36*
X650D02*
X639Y890D01*
X629Y886D01*
X621Y879D01*
X614Y871D01*
X610Y861D01*
X609Y850D01*
X610Y839D01*
X614Y829D01*
X621Y821D01*
X629Y814D01*
X639Y810D01*
X650Y809D01*
X661Y810D01*
X671Y814D01*
X679Y821D01*
X686Y829D01*
X688Y835D01*
X709D01*
Y809D01*
X791D01*
Y891D01*
X709D01*
Y865D01*
X688D01*
X686Y871D01*
X679Y879D01*
X671Y886D01*
X661Y890D01*
X650Y891D01*
D02*
G37*
G36*
X1050Y791D02*
X1039Y790D01*
X1029Y786D01*
X1021Y779D01*
X1014Y771D01*
X1012Y765D01*
X988D01*
X986Y771D01*
X979Y779D01*
X971Y786D01*
X961Y790D01*
X950Y791D01*
X939Y790D01*
X929Y786D01*
X921Y779D01*
X914Y771D01*
X910Y761D01*
X909Y750D01*
X910Y739D01*
X914Y729D01*
X921Y721D01*
X929Y714D01*
X939Y710D01*
X950Y709D01*
X961Y710D01*
X971Y714D01*
X979Y721D01*
X986Y729D01*
X988Y735D01*
X1012D01*
X1014Y729D01*
X1021Y721D01*
X1029Y714D01*
X1039Y710D01*
X1050Y709D01*
X1061Y710D01*
X1071Y714D01*
X1079Y721D01*
X1086Y729D01*
X1090Y739D01*
X1091Y750D01*
X1090Y761D01*
X1086Y771D01*
X1079Y779D01*
X1071Y786D01*
X1061Y790D01*
X1050Y791D01*
D02*
G37*
G36*
X1145Y755D02*
X1110D01*
Y720D01*
X1145D01*
Y755D01*
D02*
G37*
G36*
X750Y691D02*
X739Y690D01*
X729Y686D01*
X721Y679D01*
X714Y671D01*
X712Y665D01*
X688D01*
X686Y671D01*
X679Y679D01*
X671Y686D01*
X661Y690D01*
X650Y691D01*
X639Y690D01*
X629Y686D01*
X621Y679D01*
X614Y671D01*
X610Y661D01*
X609Y650D01*
X610Y639D01*
X614Y629D01*
X621Y621D01*
X629Y614D01*
X639Y610D01*
X650Y609D01*
X661Y610D01*
X671Y614D01*
X679Y621D01*
X686Y629D01*
X688Y635D01*
X712D01*
X714Y629D01*
X721Y621D01*
X729Y614D01*
X739Y610D01*
X750Y609D01*
X761Y610D01*
X771Y614D01*
X779Y621D01*
X786Y629D01*
X790Y639D01*
X791Y650D01*
X790Y661D01*
X786Y671D01*
X779Y679D01*
X771Y686D01*
X761Y690D01*
X750Y691D01*
D02*
G37*
G36*
X550Y741D02*
X539Y740D01*
X529Y736D01*
X521Y729D01*
X514Y721D01*
X510Y711D01*
X509Y700D01*
X510Y689D01*
X514Y679D01*
X521Y671D01*
X529Y664D01*
X539Y660D01*
X550Y659D01*
X561Y660D01*
X571Y664D01*
X579Y671D01*
X586Y679D01*
X590Y689D01*
X591Y700D01*
X590Y711D01*
X586Y721D01*
X579Y729D01*
X571Y736D01*
X561Y740D01*
X550Y741D01*
D02*
G37*
G36*
X1050Y591D02*
X1039Y590D01*
X1029Y586D01*
X1021Y579D01*
X1014Y571D01*
X1012Y565D01*
X988D01*
X986Y571D01*
X979Y579D01*
X971Y586D01*
X961Y590D01*
X950Y591D01*
X939Y590D01*
X929Y586D01*
X921Y579D01*
X914Y571D01*
X910Y561D01*
X909Y550D01*
X910Y539D01*
X914Y529D01*
X921Y521D01*
X929Y514D01*
X939Y510D01*
X950Y509D01*
X961Y510D01*
X971Y514D01*
X979Y521D01*
X986Y529D01*
X988Y535D01*
X1012D01*
X1014Y529D01*
X1021Y521D01*
X1029Y514D01*
X1039Y510D01*
X1050Y509D01*
X1061Y510D01*
X1071Y514D01*
X1079Y521D01*
X1086Y529D01*
X1090Y539D01*
X1091Y550D01*
X1090Y561D01*
X1086Y571D01*
X1079Y579D01*
X1071Y586D01*
X1061Y590D01*
X1050Y591D01*
D02*
G37*
G36*
X1190Y710D02*
X1155D01*
Y675D01*
X1190D01*
Y710D01*
D02*
G37*
G36*
X1145D02*
X1110D01*
Y675D01*
X1145D01*
Y710D01*
D02*
G37*
G36*
X1050Y691D02*
X1039Y690D01*
X1029Y686D01*
X1021Y679D01*
X1014Y671D01*
X1012Y665D01*
X988D01*
X986Y671D01*
X979Y679D01*
X971Y686D01*
X961Y690D01*
X950Y691D01*
X939Y690D01*
X929Y686D01*
X921Y679D01*
X914Y671D01*
X910Y661D01*
X909Y650D01*
X910Y639D01*
X914Y629D01*
X921Y621D01*
X929Y614D01*
X939Y610D01*
X950Y609D01*
X961Y610D01*
X971Y614D01*
X979Y621D01*
X986Y629D01*
X988Y635D01*
X1012D01*
X1014Y629D01*
X1021Y621D01*
X1029Y614D01*
X1039Y610D01*
X1050Y609D01*
X1061Y610D01*
X1071Y614D01*
X1079Y621D01*
X1086Y629D01*
X1090Y639D01*
X1091Y650D01*
X1090Y661D01*
X1086Y671D01*
X1079Y679D01*
X1071Y686D01*
X1061Y690D01*
X1050Y691D01*
D02*
G37*
%LPD*%
D10*
X700Y200D02*
X750Y250D01*
X550Y200D02*
X700D01*
Y300D02*
X750Y350D01*
X550Y300D02*
X700D01*
Y400D02*
X750Y450D01*
X550Y400D02*
X700D01*
Y500D02*
X750Y550D01*
X550Y500D02*
X700D01*
X250Y300D02*
Y800D01*
Y200D02*
Y300D01*
X950Y150D02*
X1050D01*
X950Y250D02*
X1050D01*
X950Y350D02*
X1050D01*
X950Y450D02*
X1050D01*
X950Y550D02*
X1050D01*
X950Y650D02*
X1060D01*
X950Y750D02*
X1050D01*
X650Y650D02*
X760D01*
X650Y750D02*
X750D01*
X650Y850D02*
X750D01*
D11*
X550Y500D02*
D03*
Y400D02*
D03*
Y300D02*
D03*
Y200D02*
D03*
X250D02*
D03*
Y300D02*
D03*
Y400D02*
D03*
Y700D02*
D03*
X550D02*
D03*
Y800D02*
D03*
X750Y750D02*
D03*
Y650D02*
D03*
Y550D02*
D03*
Y450D02*
D03*
Y350D02*
D03*
Y250D02*
D03*
Y150D02*
D03*
X1050D02*
D03*
Y250D02*
D03*
Y350D02*
D03*
Y450D02*
D03*
Y550D02*
D03*
Y650D02*
D03*
Y750D02*
D03*
Y850D02*
D03*
X950D02*
D03*
Y750D02*
D03*
Y650D02*
D03*
Y550D02*
D03*
Y450D02*
D03*
Y350D02*
D03*
Y250D02*
D03*
Y150D02*
D03*
X650D02*
D03*
Y250D02*
D03*
Y350D02*
D03*
Y450D02*
D03*
Y550D02*
D03*
Y650D02*
D03*
Y750D02*
D03*
Y850D02*
D03*
D12*
X250Y500D02*
D03*
Y800D02*
D03*
X750Y850D02*
D03*
D13*
X1150Y715D02*
D03*
Y850D02*
D03*
D14*
X950D02*
X1150D01*
M02*
