G04 Layer_Color=65535*
%FSLAX23Y23*%
%MOIN*%
G70*
G01*
G75*
%ADD10C,0.010*%
%ADD15C,0.005*%
D10*
X375Y550D02*
G03*
X425Y550I25J0D01*
G01*
X375Y850D02*
G03*
X425Y850I25J0D01*
G01*
X875Y900D02*
G03*
X925Y900I25J0D01*
G01*
X300Y150D02*
Y550D01*
Y150D02*
X500D01*
Y550D01*
X425D02*
X500D01*
X300D02*
X375D01*
X300Y850D02*
X375D01*
X425D02*
X500D01*
Y650D02*
Y850D01*
X300Y650D02*
X500D01*
X300D02*
Y850D01*
X800Y900D02*
X875D01*
X925D02*
X1000D01*
Y100D02*
Y900D01*
X800Y100D02*
X1000D01*
X800D02*
Y900D01*
X110Y100D02*
X127D01*
X118D01*
Y50D01*
X110D01*
X127D01*
X152D02*
Y100D01*
X185Y50D01*
Y100D01*
X202D02*
X235D01*
X218D01*
Y50D01*
X285Y100D02*
X252D01*
Y50D01*
X285D01*
X252Y75D02*
X268D01*
X302Y50D02*
Y100D01*
X327D01*
X335Y92D01*
Y75D01*
X327Y67D01*
X302D01*
X318D02*
X335Y50D01*
X352D02*
Y100D01*
X377D01*
X385Y92D01*
Y75D01*
X377Y67D01*
X352D01*
X368D02*
X385Y50D01*
X402Y100D02*
Y58D01*
X410Y50D01*
X427D01*
X435Y58D01*
Y100D01*
X452Y50D02*
Y100D01*
X477D01*
X485Y92D01*
Y75D01*
X477Y67D01*
X452D01*
X502Y100D02*
X535D01*
X518D01*
Y50D01*
D15*
X70Y420D02*
X50D01*
Y405D01*
X60Y410D01*
X65D01*
X70Y405D01*
Y395D01*
X65Y390D01*
X55D01*
X50Y395D01*
X80Y410D02*
X85D01*
Y405D01*
X80D01*
Y410D01*
Y395D02*
X85D01*
Y390D01*
X80D01*
Y395D01*
X125D02*
Y415D01*
X120Y420D01*
X110D01*
X105Y415D01*
Y395D01*
X110Y390D01*
X120D01*
X115Y400D02*
X125Y390D01*
X120D02*
X125Y395D01*
X135Y390D02*
X145D01*
X140D01*
Y420D01*
X135Y415D01*
X70Y320D02*
X60Y315D01*
X50Y305D01*
Y295D01*
X55Y290D01*
X65D01*
X70Y295D01*
Y300D01*
X65Y305D01*
X50D01*
X80Y310D02*
X85D01*
Y305D01*
X80D01*
Y310D01*
Y295D02*
X85D01*
Y290D01*
X80D01*
Y295D01*
X125D02*
Y315D01*
X120Y320D01*
X110D01*
X105Y315D01*
Y295D01*
X110Y290D01*
X120D01*
X115Y300D02*
X125Y290D01*
X120D02*
X125Y295D01*
X155Y290D02*
X135D01*
X155Y310D01*
Y315D01*
X150Y320D01*
X140D01*
X135Y315D01*
X50Y220D02*
X70D01*
Y215D01*
X50Y195D01*
Y190D01*
X80Y210D02*
X85D01*
Y205D01*
X80D01*
Y210D01*
Y195D02*
X85D01*
Y190D01*
X80D01*
Y195D01*
X125D02*
Y215D01*
X120Y220D01*
X110D01*
X105Y215D01*
Y195D01*
X110Y190D01*
X120D01*
X115Y200D02*
X125Y190D01*
X120D02*
X125Y195D01*
X135Y215D02*
X140Y220D01*
X150D01*
X155Y215D01*
Y210D01*
X150Y205D01*
X145D01*
X150D01*
X155Y200D01*
Y195D01*
X150Y190D01*
X140D01*
X135Y195D01*
X65Y490D02*
Y520D01*
X50Y505D01*
X70D01*
X80Y510D02*
X85D01*
Y505D01*
X80D01*
Y510D01*
Y495D02*
X85D01*
Y490D01*
X80D01*
Y495D01*
X125D02*
Y515D01*
X120Y520D01*
X110D01*
X105Y515D01*
Y495D01*
X110Y490D01*
X120D01*
X115Y500D02*
X125Y490D01*
X120D02*
X125Y495D01*
X135Y515D02*
X140Y520D01*
X150D01*
X155Y515D01*
Y495D01*
X150Y490D01*
X140D01*
X135Y495D01*
Y515D01*
X65Y790D02*
Y820D01*
X50Y805D01*
X70D01*
X80Y810D02*
X85D01*
Y805D01*
X80D01*
Y810D01*
Y795D02*
X85D01*
Y790D01*
X80D01*
Y795D01*
X105Y790D02*
Y820D01*
X115Y810D01*
X125Y820D01*
Y790D01*
X155Y815D02*
X150Y820D01*
X140D01*
X135Y815D01*
Y795D01*
X140Y790D01*
X150D01*
X155Y795D01*
X70Y720D02*
X50D01*
Y705D01*
X60Y710D01*
X65D01*
X70Y705D01*
Y695D01*
X65Y690D01*
X55D01*
X50Y695D01*
X80Y710D02*
X85D01*
Y705D01*
X80D01*
Y710D01*
Y695D02*
X85D01*
Y690D01*
X80D01*
Y695D01*
X125Y715D02*
X120Y720D01*
X110D01*
X105Y715D01*
Y695D01*
X110Y690D01*
X120D01*
X125Y695D01*
Y705D01*
X115D01*
X135Y690D02*
Y710D01*
X145Y720D01*
X155Y710D01*
Y690D01*
Y705D01*
X135D01*
X165Y720D02*
Y690D01*
X185D01*
M02*
