M48
;Layer_Color=9474304
;FILE_FORMAT=2:3
INCH,TZ
;TYPE=PLATED
T1F00S00C0.032
%
T01
X250Y200
Y300
Y400
Y500
X550
Y400
Y300
Y200
X650Y150
X750
Y250
Y350
Y450
X650
Y350
Y250
X950
X1050
Y150
X950
Y350
X1050
Y450
X950
Y550
X1050
Y650
Y750
Y850
X950
Y750
Y650
X750
Y750
Y850
X650
Y750
Y650
Y550
X750
X550Y700
Y800
X250
Y700
M30
