G04 Layer_Physical_Order=1*
G04 Layer_Color=255*
%FSLAX23Y23*%
%MOIN*%
G70*
G01*
G75*
%ADD10C,0.010*%
%ADD11C,0.062*%
%ADD12R,0.062X0.062*%
G36*
X1170Y0D02*
X0D01*
Y1000D01*
X1170D01*
Y0D01*
D02*
G37*
%LPC*%
G36*
X900Y291D02*
X889Y290D01*
X879Y286D01*
X871Y279D01*
X864Y271D01*
X860Y261D01*
X859Y250D01*
X860Y239D01*
X864Y229D01*
X871Y221D01*
X879Y214D01*
X889Y210D01*
X900Y209D01*
X911Y210D01*
X921Y214D01*
X929Y221D01*
X936Y229D01*
X940Y239D01*
X941Y250D01*
X940Y261D01*
X936Y271D01*
X929Y279D01*
X921Y286D01*
X911Y290D01*
X900Y291D01*
D02*
G37*
G36*
X1000D02*
X989Y290D01*
X979Y286D01*
X971Y279D01*
X964Y271D01*
X960Y261D01*
X959Y250D01*
X960Y239D01*
X964Y229D01*
X971Y221D01*
X979Y214D01*
X989Y210D01*
X1000Y209D01*
X1011Y210D01*
X1021Y214D01*
X1029Y221D01*
X1036Y229D01*
X1040Y239D01*
X1041Y250D01*
X1040Y261D01*
X1036Y271D01*
X1029Y279D01*
X1021Y286D01*
X1011Y290D01*
X1000Y291D01*
D02*
G37*
G36*
X700D02*
X689Y290D01*
X679Y286D01*
X671Y279D01*
X664Y271D01*
X660Y261D01*
X659Y250D01*
X660Y239D01*
X664Y229D01*
X671Y221D01*
X679Y214D01*
X689Y210D01*
X700Y209D01*
X711Y210D01*
X721Y214D01*
X729Y221D01*
X736Y229D01*
X740Y239D01*
X741Y250D01*
X740Y261D01*
X736Y271D01*
X729Y279D01*
X721Y286D01*
X711Y290D01*
X700Y291D01*
D02*
G37*
G36*
X500Y241D02*
X489Y240D01*
X479Y236D01*
X471Y229D01*
X464Y221D01*
X460Y211D01*
X459Y200D01*
X460Y189D01*
X464Y179D01*
X471Y171D01*
X479Y164D01*
X489Y160D01*
X500Y159D01*
X511Y160D01*
X521Y164D01*
X529Y171D01*
X536Y179D01*
X540Y189D01*
X541Y200D01*
X540Y211D01*
X536Y221D01*
X529Y229D01*
X521Y236D01*
X511Y240D01*
X500Y241D01*
D02*
G37*
G36*
X600Y291D02*
X589Y290D01*
X579Y286D01*
X571Y279D01*
X564Y271D01*
X560Y261D01*
X559Y250D01*
X560Y239D01*
X564Y229D01*
X571Y221D01*
X579Y214D01*
X589Y210D01*
X600Y209D01*
X611Y210D01*
X621Y214D01*
X629Y221D01*
X636Y229D01*
X640Y239D01*
X641Y250D01*
X640Y261D01*
X636Y271D01*
X629Y279D01*
X621Y286D01*
X611Y290D01*
X600Y291D01*
D02*
G37*
G36*
X900Y391D02*
X889Y390D01*
X879Y386D01*
X871Y379D01*
X864Y371D01*
X860Y361D01*
X859Y350D01*
X860Y339D01*
X864Y329D01*
X871Y321D01*
X879Y314D01*
X889Y310D01*
X900Y309D01*
X911Y310D01*
X921Y314D01*
X929Y321D01*
X936Y329D01*
X940Y339D01*
X941Y350D01*
X940Y361D01*
X936Y371D01*
X929Y379D01*
X921Y386D01*
X911Y390D01*
X900Y391D01*
D02*
G37*
G36*
X1000D02*
X989Y390D01*
X979Y386D01*
X971Y379D01*
X964Y371D01*
X960Y361D01*
X959Y350D01*
X960Y339D01*
X964Y329D01*
X971Y321D01*
X979Y314D01*
X989Y310D01*
X1000Y309D01*
X1011Y310D01*
X1021Y314D01*
X1029Y321D01*
X1036Y329D01*
X1040Y339D01*
X1041Y350D01*
X1040Y361D01*
X1036Y371D01*
X1029Y379D01*
X1021Y386D01*
X1011Y390D01*
X1000Y391D01*
D02*
G37*
G36*
X700D02*
X689Y390D01*
X679Y386D01*
X671Y379D01*
X664Y371D01*
X660Y361D01*
X659Y350D01*
X660Y339D01*
X664Y329D01*
X671Y321D01*
X679Y314D01*
X689Y310D01*
X700Y309D01*
X711Y310D01*
X721Y314D01*
X729Y321D01*
X736Y329D01*
X740Y339D01*
X741Y350D01*
X740Y361D01*
X736Y371D01*
X729Y379D01*
X721Y386D01*
X711Y390D01*
X700Y391D01*
D02*
G37*
G36*
X200Y341D02*
X189Y340D01*
X179Y336D01*
X171Y329D01*
X164Y321D01*
X160Y311D01*
X159Y300D01*
X160Y289D01*
X164Y279D01*
X171Y271D01*
X179Y264D01*
X189Y260D01*
X200Y259D01*
X211Y260D01*
X221Y264D01*
X229Y271D01*
X236Y279D01*
X240Y289D01*
X241Y300D01*
X240Y311D01*
X236Y321D01*
X229Y329D01*
X221Y336D01*
X211Y340D01*
X200Y341D01*
D02*
G37*
G36*
X500D02*
X489Y340D01*
X479Y336D01*
X471Y329D01*
X464Y321D01*
X460Y311D01*
X459Y300D01*
X460Y289D01*
X464Y279D01*
X471Y271D01*
X479Y264D01*
X489Y260D01*
X500Y259D01*
X511Y260D01*
X521Y264D01*
X529Y271D01*
X536Y279D01*
X540Y289D01*
X541Y300D01*
X540Y311D01*
X536Y321D01*
X529Y329D01*
X521Y336D01*
X511Y340D01*
X500Y341D01*
D02*
G37*
G36*
X200Y241D02*
X189Y240D01*
X179Y236D01*
X171Y229D01*
X164Y221D01*
X160Y211D01*
X159Y200D01*
X160Y189D01*
X164Y179D01*
X171Y171D01*
X179Y164D01*
X189Y160D01*
X200Y159D01*
X211Y160D01*
X221Y164D01*
X229Y171D01*
X236Y179D01*
X240Y189D01*
X241Y200D01*
X240Y211D01*
X236Y221D01*
X229Y229D01*
X221Y236D01*
X211Y240D01*
X200Y241D01*
D02*
G37*
G36*
X695Y145D02*
X659D01*
X660Y139D01*
X664Y129D01*
X671Y121D01*
X679Y114D01*
X689Y110D01*
X695Y109D01*
Y145D01*
D02*
G37*
G36*
X741D02*
X705D01*
Y109D01*
X711Y110D01*
X721Y114D01*
X729Y121D01*
X736Y129D01*
X740Y139D01*
X741Y145D01*
D02*
G37*
G36*
X595D02*
X559D01*
X560Y139D01*
X564Y129D01*
X571Y121D01*
X579Y114D01*
X589Y110D01*
X595Y109D01*
Y145D01*
D02*
G37*
G36*
X900Y191D02*
X889Y190D01*
X879Y186D01*
X871Y179D01*
X864Y171D01*
X860Y161D01*
X859Y150D01*
X860Y139D01*
X864Y129D01*
X871Y121D01*
X879Y114D01*
X889Y110D01*
X900Y109D01*
X911Y110D01*
X921Y114D01*
X929Y121D01*
X936Y129D01*
X940Y139D01*
X941Y150D01*
X940Y161D01*
X936Y171D01*
X929Y179D01*
X921Y186D01*
X911Y190D01*
X900Y191D01*
D02*
G37*
G36*
X1000D02*
X989Y190D01*
X979Y186D01*
X971Y179D01*
X964Y171D01*
X960Y161D01*
X959Y150D01*
X960Y139D01*
X964Y129D01*
X971Y121D01*
X979Y114D01*
X989Y110D01*
X1000Y109D01*
X1011Y110D01*
X1021Y114D01*
X1029Y121D01*
X1036Y129D01*
X1040Y139D01*
X1041Y150D01*
X1040Y161D01*
X1036Y171D01*
X1029Y179D01*
X1021Y186D01*
X1011Y190D01*
X1000Y191D01*
D02*
G37*
G36*
X705Y191D02*
Y155D01*
X741D01*
X740Y161D01*
X736Y171D01*
X729Y179D01*
X721Y186D01*
X711Y190D01*
X705Y191D01*
D02*
G37*
G36*
X605D02*
Y155D01*
X641D01*
X640Y161D01*
X636Y171D01*
X629Y179D01*
X621Y186D01*
X611Y190D01*
X605Y191D01*
D02*
G37*
G36*
X695D02*
X689Y190D01*
X679Y186D01*
X671Y179D01*
X664Y171D01*
X660Y161D01*
X659Y155D01*
X695D01*
Y191D01*
D02*
G37*
G36*
X641Y145D02*
X605D01*
Y109D01*
X611Y110D01*
X621Y114D01*
X629Y121D01*
X636Y129D01*
X640Y139D01*
X641Y145D01*
D02*
G37*
G36*
X595Y191D02*
X589Y190D01*
X579Y186D01*
X571Y179D01*
X564Y171D01*
X560Y161D01*
X559Y155D01*
X595D01*
Y191D01*
D02*
G37*
G36*
X600Y791D02*
X589Y790D01*
X579Y786D01*
X571Y779D01*
X564Y771D01*
X560Y761D01*
X559Y750D01*
X560Y739D01*
X564Y729D01*
X571Y721D01*
X579Y714D01*
X589Y710D01*
X600Y709D01*
X611Y710D01*
X621Y714D01*
X629Y721D01*
X636Y729D01*
X640Y739D01*
X641Y750D01*
X640Y761D01*
X636Y771D01*
X629Y779D01*
X621Y786D01*
X611Y790D01*
X600Y791D01*
D02*
G37*
G36*
X700D02*
X689Y790D01*
X679Y786D01*
X671Y779D01*
X664Y771D01*
X660Y761D01*
X659Y750D01*
X660Y739D01*
X664Y729D01*
X671Y721D01*
X679Y714D01*
X689Y710D01*
X700Y709D01*
X711Y710D01*
X721Y714D01*
X729Y721D01*
X736Y729D01*
X740Y739D01*
X741Y750D01*
X740Y761D01*
X736Y771D01*
X729Y779D01*
X721Y786D01*
X711Y790D01*
X700Y791D01*
D02*
G37*
G36*
X1000Y691D02*
X989Y690D01*
X979Y686D01*
X971Y679D01*
X964Y671D01*
X960Y661D01*
X959Y650D01*
X960Y639D01*
X964Y629D01*
X971Y621D01*
X979Y614D01*
X989Y610D01*
X1000Y609D01*
X1011Y610D01*
X1021Y614D01*
X1029Y621D01*
X1036Y629D01*
X1040Y639D01*
X1041Y650D01*
X1040Y661D01*
X1036Y671D01*
X1029Y679D01*
X1021Y686D01*
X1011Y690D01*
X1000Y691D01*
D02*
G37*
G36*
X700D02*
X689Y690D01*
X679Y686D01*
X671Y679D01*
X664Y671D01*
X660Y661D01*
X659Y650D01*
X660Y639D01*
X664Y629D01*
X671Y621D01*
X679Y614D01*
X689Y610D01*
X700Y609D01*
X711Y610D01*
X721Y614D01*
X729Y621D01*
X736Y629D01*
X740Y639D01*
X741Y650D01*
X740Y661D01*
X736Y671D01*
X729Y679D01*
X721Y686D01*
X711Y690D01*
X700Y691D01*
D02*
G37*
G36*
X900D02*
X889Y690D01*
X879Y686D01*
X871Y679D01*
X864Y671D01*
X860Y661D01*
X859Y650D01*
X860Y639D01*
X864Y629D01*
X871Y621D01*
X879Y614D01*
X889Y610D01*
X900Y609D01*
X911Y610D01*
X921Y614D01*
X929Y621D01*
X936Y629D01*
X940Y639D01*
X941Y650D01*
X940Y661D01*
X936Y671D01*
X929Y679D01*
X921Y686D01*
X911Y690D01*
X900Y691D01*
D02*
G37*
G36*
Y791D02*
X889Y790D01*
X879Y786D01*
X871Y779D01*
X864Y771D01*
X860Y761D01*
X859Y750D01*
X860Y739D01*
X864Y729D01*
X871Y721D01*
X879Y714D01*
X889Y710D01*
X900Y709D01*
X911Y710D01*
X921Y714D01*
X929Y721D01*
X936Y729D01*
X940Y739D01*
X941Y750D01*
X940Y761D01*
X936Y771D01*
X929Y779D01*
X921Y786D01*
X911Y790D01*
X900Y791D01*
D02*
G37*
G36*
X1000Y891D02*
X989Y890D01*
X979Y886D01*
X971Y879D01*
X964Y871D01*
X960Y861D01*
X959Y850D01*
X960Y839D01*
X964Y829D01*
X971Y821D01*
X979Y814D01*
X989Y810D01*
X1000Y809D01*
X1011Y810D01*
X1021Y814D01*
X1029Y821D01*
X1036Y829D01*
X1040Y839D01*
X1041Y850D01*
X1040Y861D01*
X1036Y871D01*
X1029Y879D01*
X1021Y886D01*
X1011Y890D01*
X1000Y891D01*
D02*
G37*
G36*
X741Y891D02*
X659D01*
Y809D01*
X741D01*
Y891D01*
D02*
G37*
G36*
X900Y891D02*
X889Y890D01*
X879Y886D01*
X871Y879D01*
X864Y871D01*
X860Y861D01*
X859Y850D01*
X860Y839D01*
X864Y829D01*
X871Y821D01*
X879Y814D01*
X889Y810D01*
X900Y809D01*
X911Y810D01*
X921Y814D01*
X929Y821D01*
X936Y829D01*
X940Y839D01*
X941Y850D01*
X940Y861D01*
X936Y871D01*
X929Y879D01*
X921Y886D01*
X911Y890D01*
X900Y891D01*
D02*
G37*
G36*
X1000Y791D02*
X989Y790D01*
X979Y786D01*
X971Y779D01*
X964Y771D01*
X960Y761D01*
X959Y750D01*
X960Y739D01*
X964Y729D01*
X971Y721D01*
X979Y714D01*
X989Y710D01*
X1000Y709D01*
X1011Y710D01*
X1021Y714D01*
X1029Y721D01*
X1036Y729D01*
X1040Y739D01*
X1041Y750D01*
X1040Y761D01*
X1036Y771D01*
X1029Y779D01*
X1021Y786D01*
X1011Y790D01*
X1000Y791D01*
D02*
G37*
G36*
X600Y891D02*
X589Y890D01*
X579Y886D01*
X571Y879D01*
X564Y871D01*
X560Y861D01*
X559Y850D01*
X560Y839D01*
X564Y829D01*
X571Y821D01*
X579Y814D01*
X589Y810D01*
X600Y809D01*
X611Y810D01*
X621Y814D01*
X629Y821D01*
X636Y829D01*
X640Y839D01*
X641Y850D01*
X640Y861D01*
X636Y871D01*
X629Y879D01*
X621Y886D01*
X611Y890D01*
X600Y891D01*
D02*
G37*
G36*
X1000Y491D02*
X989Y490D01*
X979Y486D01*
X971Y479D01*
X964Y471D01*
X960Y461D01*
X959Y450D01*
X960Y439D01*
X964Y429D01*
X971Y421D01*
X979Y414D01*
X989Y410D01*
X1000Y409D01*
X1011Y410D01*
X1021Y414D01*
X1029Y421D01*
X1036Y429D01*
X1040Y439D01*
X1041Y450D01*
X1040Y461D01*
X1036Y471D01*
X1029Y479D01*
X1021Y486D01*
X1011Y490D01*
X1000Y491D01*
D02*
G37*
G36*
X500Y541D02*
X489Y540D01*
X479Y536D01*
X471Y529D01*
X464Y521D01*
X460Y511D01*
X459Y500D01*
X460Y489D01*
X464Y479D01*
X471Y471D01*
X479Y464D01*
X489Y460D01*
X500Y459D01*
X511Y460D01*
X521Y464D01*
X529Y471D01*
X536Y479D01*
X540Y489D01*
X541Y500D01*
X540Y511D01*
X536Y521D01*
X529Y529D01*
X521Y536D01*
X511Y540D01*
X500Y541D01*
D02*
G37*
G36*
X900Y491D02*
X889Y490D01*
X879Y486D01*
X871Y479D01*
X864Y471D01*
X860Y461D01*
X859Y450D01*
X860Y439D01*
X864Y429D01*
X871Y421D01*
X879Y414D01*
X889Y410D01*
X900Y409D01*
X911Y410D01*
X921Y414D01*
X929Y421D01*
X936Y429D01*
X940Y439D01*
X941Y450D01*
X940Y461D01*
X936Y471D01*
X929Y479D01*
X921Y486D01*
X911Y490D01*
X900Y491D01*
D02*
G37*
G36*
X200Y441D02*
X189Y440D01*
X179Y436D01*
X171Y429D01*
X164Y421D01*
X160Y411D01*
X159Y400D01*
X160Y389D01*
X164Y379D01*
X171Y371D01*
X179Y364D01*
X189Y360D01*
X200Y359D01*
X211Y360D01*
X221Y364D01*
X229Y371D01*
X236Y379D01*
X240Y389D01*
X241Y400D01*
X240Y411D01*
X236Y421D01*
X229Y429D01*
X221Y436D01*
X211Y440D01*
X200Y441D01*
D02*
G37*
G36*
X500D02*
X489Y440D01*
X479Y436D01*
X471Y429D01*
X464Y421D01*
X460Y411D01*
X459Y400D01*
X460Y389D01*
X464Y379D01*
X471Y371D01*
X479Y364D01*
X489Y360D01*
X500Y359D01*
X511Y360D01*
X521Y364D01*
X529Y371D01*
X536Y379D01*
X540Y389D01*
X541Y400D01*
X540Y411D01*
X536Y421D01*
X529Y429D01*
X521Y436D01*
X511Y440D01*
X500Y441D01*
D02*
G37*
G36*
X241Y541D02*
X159D01*
Y459D01*
X241D01*
Y541D01*
D02*
G37*
G36*
X1000Y591D02*
X989Y590D01*
X979Y586D01*
X971Y579D01*
X964Y571D01*
X960Y561D01*
X959Y550D01*
X960Y539D01*
X964Y529D01*
X971Y521D01*
X979Y514D01*
X989Y510D01*
X1000Y509D01*
X1011Y510D01*
X1021Y514D01*
X1029Y521D01*
X1036Y529D01*
X1040Y539D01*
X1041Y550D01*
X1040Y561D01*
X1036Y571D01*
X1029Y579D01*
X1021Y586D01*
X1011Y590D01*
X1000Y591D01*
D02*
G37*
G36*
X600Y691D02*
X589Y690D01*
X579Y686D01*
X571Y679D01*
X564Y671D01*
X560Y661D01*
X559Y650D01*
X560Y639D01*
X564Y629D01*
X571Y621D01*
X579Y614D01*
X589Y610D01*
X600Y609D01*
X611Y610D01*
X621Y614D01*
X629Y621D01*
X636Y629D01*
X640Y639D01*
X641Y650D01*
X640Y661D01*
X636Y671D01*
X629Y679D01*
X621Y686D01*
X611Y690D01*
X600Y691D01*
D02*
G37*
G36*
X900Y591D02*
X889Y590D01*
X879Y586D01*
X871Y579D01*
X864Y571D01*
X860Y561D01*
X859Y550D01*
X860Y539D01*
X864Y529D01*
X871Y521D01*
X879Y514D01*
X889Y510D01*
X900Y509D01*
X911Y510D01*
X921Y514D01*
X929Y521D01*
X936Y529D01*
X940Y539D01*
X941Y550D01*
X940Y561D01*
X936Y571D01*
X929Y579D01*
X921Y586D01*
X911Y590D01*
X900Y591D01*
D02*
G37*
G36*
X600D02*
X589Y590D01*
X579Y586D01*
X571Y579D01*
X564Y571D01*
X560Y561D01*
X559Y550D01*
X560Y539D01*
X564Y529D01*
X571Y521D01*
X579Y514D01*
X589Y510D01*
X600Y509D01*
X611Y510D01*
X616Y512D01*
X635Y494D01*
Y480D01*
X630Y478D01*
X629Y479D01*
X621Y486D01*
X611Y490D01*
X600Y491D01*
X589Y490D01*
X579Y486D01*
X571Y479D01*
X564Y471D01*
X560Y461D01*
X559Y450D01*
X560Y439D01*
X564Y429D01*
X571Y421D01*
X579Y414D01*
X589Y410D01*
X600Y409D01*
X611Y410D01*
X621Y414D01*
X629Y421D01*
X630Y422D01*
X635Y420D01*
Y406D01*
X616Y388D01*
X611Y390D01*
X600Y391D01*
X589Y390D01*
X579Y386D01*
X571Y379D01*
X564Y371D01*
X560Y361D01*
X559Y350D01*
X560Y339D01*
X564Y329D01*
X571Y321D01*
X579Y314D01*
X589Y310D01*
X600Y309D01*
X611Y310D01*
X621Y314D01*
X629Y321D01*
X636Y329D01*
X640Y339D01*
X641Y350D01*
X640Y361D01*
X638Y366D01*
X661Y389D01*
X664Y394D01*
X665Y400D01*
Y420D01*
X670Y422D01*
X671Y421D01*
X679Y414D01*
X689Y410D01*
X700Y409D01*
X711Y410D01*
X721Y414D01*
X729Y421D01*
X736Y429D01*
X740Y439D01*
X741Y450D01*
X740Y461D01*
X736Y471D01*
X729Y479D01*
X721Y486D01*
X711Y490D01*
X700Y491D01*
X689Y490D01*
X679Y486D01*
X671Y479D01*
X670Y478D01*
X665Y480D01*
Y500D01*
X664Y506D01*
X661Y511D01*
X638Y534D01*
X640Y539D01*
X641Y550D01*
X640Y561D01*
X636Y571D01*
X629Y579D01*
X621Y586D01*
X611Y590D01*
X600Y591D01*
D02*
G37*
G36*
X700D02*
X689Y590D01*
X679Y586D01*
X671Y579D01*
X664Y571D01*
X660Y561D01*
X659Y550D01*
X660Y539D01*
X664Y529D01*
X671Y521D01*
X679Y514D01*
X689Y510D01*
X700Y509D01*
X711Y510D01*
X721Y514D01*
X729Y521D01*
X736Y529D01*
X740Y539D01*
X741Y550D01*
X740Y561D01*
X736Y571D01*
X729Y579D01*
X721Y586D01*
X711Y590D01*
X700Y591D01*
D02*
G37*
%LPD*%
D10*
X600Y550D02*
X650Y500D01*
Y400D02*
Y500D01*
X600Y350D02*
X650Y400D01*
D11*
X500Y500D02*
D03*
Y400D02*
D03*
Y300D02*
D03*
Y200D02*
D03*
X200D02*
D03*
Y300D02*
D03*
Y400D02*
D03*
X700Y750D02*
D03*
Y650D02*
D03*
Y550D02*
D03*
Y450D02*
D03*
Y350D02*
D03*
Y250D02*
D03*
Y150D02*
D03*
X1000D02*
D03*
Y250D02*
D03*
Y350D02*
D03*
Y450D02*
D03*
Y550D02*
D03*
Y650D02*
D03*
Y750D02*
D03*
Y850D02*
D03*
X900D02*
D03*
Y750D02*
D03*
Y650D02*
D03*
Y550D02*
D03*
Y450D02*
D03*
Y350D02*
D03*
Y250D02*
D03*
Y150D02*
D03*
X600D02*
D03*
Y250D02*
D03*
Y350D02*
D03*
Y450D02*
D03*
Y550D02*
D03*
Y650D02*
D03*
Y750D02*
D03*
Y850D02*
D03*
D12*
X200Y500D02*
D03*
X700Y850D02*
D03*
M02*
