M48
;Layer_Color=9474304
;FILE_FORMAT=2:3
INCH,TZ
;TYPE=PLATED
T1F00S00C0.032
%
T01
X200Y200
Y300
Y400
Y500
X500
Y400
Y300
Y200
X600Y150
X700
Y250
Y350
Y450
X600
Y350
Y250
X900
X1000
Y150
X900
Y350
X1000
Y450
X900
Y550
X1000
Y650
Y750
Y850
X900
Y750
Y650
X700
Y750
Y850
X600
Y750
Y650
Y550
X700
M30
